# xmcd CD database file
#
# Track frame offsets:
#	150
#	16462
#	25087
#	38550
#	46562
#	59155
#	68587
#	80797
#	92737
#	104475
#	112462
#	123025
#
# Disc length: 1760 seconds
#
# Revision: 1
# Processed by: cddbd v1.5.1PL2 Copyright (c) Steve Scherf et al.
# Submitted via: Feurio! 1.68 - http://www.feurio.com
#
DISCID=9c06de0c
DTITLE=Oakridge Boys - You'll Never Walk Alone
DYEAR=1971
DGENRE=Country
TTITLE0=Farther Along
TTITLE1=Day Of Rejoicing
TTITLE2=Lead Me To Calvery
TTITLE3=River Of Life
TTITLE4=You'll Never Walk Alone
TTITLE5=One Of These Mornings
TTITLE6=When I Lay My Burdens Down
TTITLE7=At The Roll Call
TTITLE8=Time Has Made A Change In Me
TTITLE9=Someday
TTITLE10=Help Me Not To Complain
TTITLE11=I'll Shake The Hand Of The Lord
EXTD=mastered from LPs
EXTT0=
EXTT1=
EXTT2=
EXTT3=
EXTT4=
EXTT5=
EXTT6=
EXTT7=
EXTT8=
EXTT9=
EXTT10=
EXTT11=
PLAYORDER=
